<svg width="254" height="40" viewBox="0 0 254 40" fill="none" xmlns="http://www.w3.org/2000/svg">
<g id="Headline / Simple">
<g id="Slovensk&#195;&#189; znak">
<rect id="Rectangle 67" x="6.66675" y="30.0001" width="3.33334" height="3.33334" transform="rotate(-90 6.66675 30.0001)" fill="#0065B3"/>
<rect id="Rectangle 138" x="3.33325" y="30.0001" width="3.33334" height="3.33334" transform="rotate(-90 3.33325 30.0001)" fill="#0065B3"/>
<rect id="Rectangle 167" y="30.0001" width="3.33334" height="3.33334" transform="rotate(-90 0 30.0001)" fill="#0065B3"/>
<rect id="Rectangle 106" x="23.3334" y="30.0001" width="3.33334" height="3.33334" transform="rotate(90 23.3334 30.0001)" fill="#0065B3"/>
<rect id="Rectangle 132" x="26.6667" y="30.0001" width="3.33334" height="3.33334" transform="rotate(90 26.6667 30.0001)" fill="#0065B3"/>
<rect id="Rectangle 135" x="26.6667" y="26.6667" width="3.33334" height="3.33334" transform="rotate(90 26.6667 26.6667)" fill="#0065B3"/>
<rect id="Rectangle 168" x="30" y="26.6667" width="3.33334" height="3.33334" transform="rotate(90 30 26.6667)" fill="#0065B3"/>
<rect id="Rectangle 137" x="26.6667" y="23.3333" width="3.33334" height="3.33334" transform="rotate(90 26.6667 23.3333)" fill="#0065B3"/>
<rect id="Rectangle 151" x="23.3334" y="23.3333" width="3.33334" height="3.33334" transform="rotate(90 23.3334 23.3333)" fill="#0065B3"/>
<rect id="Rectangle 139" x="6.66675" y="23.3333" width="3.33334" height="3.33334" transform="rotate(90 6.66675 23.3333)" fill="#0065B3"/>
<rect id="Rectangle 152" x="10" y="23.3333" width="3.33334" height="3.33334" transform="rotate(90 10 23.3333)" fill="#0065B3"/>
<rect id="Rectangle 153" x="3.33325" y="3.3335" width="3.33334" height="3.33334" transform="rotate(90 3.33325 3.3335)" fill="#FF0000"/>
<rect id="Rectangle 169" x="6.66675" width="3.33334" height="3.33334" transform="rotate(90 6.66675 0)" fill="#FF0000"/>
<rect id="Rectangle 188" width="3.33334" height="3.33334" transform="matrix(4.37114e-08 1 1 -4.37114e-08 23.3334 0)" fill="#FF0000"/>
<rect id="Rectangle 176" x="10" width="3.33334" height="3.33334" transform="rotate(90 10 0)" fill="#FF0000"/>
<rect id="Rectangle 189" width="3.33334" height="3.33334" transform="matrix(4.37114e-08 1 1 -4.37114e-08 20 0)" fill="#FF0000"/>
<rect id="Rectangle 183" x="13.3334" width="3.33334" height="3.33334" transform="rotate(90 13.3334 0)" fill="#FF0000"/>
<rect id="Rectangle 190" width="3.33334" height="3.33334" transform="matrix(4.37114e-08 1 1 -4.37114e-08 16.6667 0)" fill="#FF0000"/>
<rect id="Rectangle 187" x="16.6667" width="3.33334" height="3.33334" transform="rotate(90 16.6667 0)" fill="#FF0000"/>
<rect id="Rectangle 170" x="6.66675" y="3.3335" width="3.33334" height="3.33334" transform="rotate(90 6.66675 3.3335)" fill="#FF0000"/>
<rect id="Rectangle 191" width="3.33334" height="3.33334" transform="matrix(4.37114e-08 1 1 -4.37114e-08 23.3334 3.3335)" fill="#FF0000"/>
<rect id="Rectangle 177" x="10" y="3.3335" width="3.33334" height="3.33334" transform="rotate(90 10 3.3335)" fill="#FF0000"/>
<rect id="Rectangle 192" width="3.33334" height="3.33334" transform="matrix(4.37114e-08 1 1 -4.37114e-08 20 3.3335)" fill="#FF0000"/>
<rect id="Rectangle 184" x="13.3334" y="3.3335" width="3.33334" height="3.33334" transform="rotate(90 13.3334 3.3335)" fill="#FF0000"/>
<rect id="Rectangle 193" width="3.33334" height="3.33334" transform="matrix(4.37114e-08 1 1 -4.37114e-08 16.6667 3.3335)" fill="#FF0000"/>
<rect id="Rectangle 185" x="13.3334" y="9.99988" width="3.33334" height="3.33334" transform="rotate(90 13.3334 9.99988)" fill="#FF0000"/>
<rect id="Rectangle 194" width="3.33334" height="3.33334" transform="matrix(4.37114e-08 1 1 -4.37114e-08 16.6667 9.99988)" fill="#FF0000"/>
<rect id="Rectangle 186" x="13.3334" y="16.6667" width="3.33334" height="3.33334" transform="rotate(90 13.3334 16.6667)" fill="#FF0000"/>
<rect id="Rectangle 195" width="3.33334" height="3.33334" transform="matrix(4.37114e-08 1 1 -4.37114e-08 16.6667 16.6667)" fill="#FF0000"/>
<rect id="Rectangle 171" x="6.66675" y="6.6665" width="3.33334" height="3.33334" transform="rotate(90 6.66675 6.6665)" fill="#FF0000"/>
<rect id="Rectangle 196" width="3.33334" height="3.33334" transform="matrix(4.37114e-08 1 1 -4.37114e-08 23.3334 6.6665)" fill="#FF0000"/>
<rect id="Rectangle 178" x="10" y="6.6665" width="3.33334" height="3.33334" transform="rotate(90 10 6.6665)" fill="#FF0000"/>
<rect id="Rectangle 197" width="3.33334" height="3.33334" transform="matrix(4.37114e-08 1 1 -4.37114e-08 20 6.6665)" fill="#FF0000"/>
<rect id="Rectangle 172" x="6.66675" y="9.99988" width="3.33334" height="3.33334" transform="rotate(90 6.66675 9.99988)" fill="#FF0000"/>
<rect id="Rectangle 198" width="3.33334" height="3.33334" transform="matrix(4.37114e-08 1 1 -4.37114e-08 23.3334 9.99988)" fill="#FF0000"/>
<rect id="Rectangle 179" x="10" y="9.99988" width="3.33334" height="3.33334" transform="rotate(90 10 9.99988)" fill="#FF0000"/>
<rect id="Rectangle 199" width="3.33334" height="3.33334" transform="matrix(4.37114e-08 1 1 -4.37114e-08 20 9.99988)" fill="#FF0000"/>
<rect id="Rectangle 173" x="6.66675" y="13.3334" width="3.33334" height="3.33334" transform="rotate(90 6.66675 13.3334)" fill="#FF0000"/>
<rect id="Rectangle 200" width="3.33334" height="3.33334" transform="matrix(4.37114e-08 1 1 -4.37114e-08 23.3334 13.3334)" fill="#FF0000"/>
<rect id="Rectangle 174" x="6.66675" y="16.6667" width="3.33334" height="3.33334" transform="rotate(90 6.66675 16.6667)" fill="#FF0000"/>
<rect id="Rectangle 201" width="3.33334" height="3.33334" transform="matrix(4.37114e-08 1 1 -4.37114e-08 23.3334 16.6667)" fill="#FF0000"/>
<rect id="Rectangle 181" x="10" y="16.6667" width="3.33334" height="3.33334" transform="rotate(90 10 16.6667)" fill="#FF0000"/>
<rect id="Rectangle 202" width="3.33334" height="3.33334" transform="matrix(4.37114e-08 1 1 -4.37114e-08 20 16.6667)" fill="#FF0000"/>
<rect id="Rectangle 175" x="6.66675" y="19.9998" width="3.33334" height="3.33334" transform="rotate(90 6.66675 19.9998)" fill="#FF0000"/>
<rect id="Rectangle 203" width="3.33334" height="3.33334" transform="matrix(4.37114e-08 1 1 -4.37114e-08 23.3334 19.9998)" fill="#FF0000"/>
<rect id="Rectangle 182" x="10" y="19.9998" width="3.33334" height="3.33334" transform="rotate(90 10 19.9998)" fill="#FF0000"/>
<rect id="Rectangle 204" width="3.33334" height="3.33334" transform="matrix(4.37114e-08 1 1 -4.37114e-08 20 19.9998)" fill="#FF0000"/>
<rect id="Rectangle 154" x="3.33325" y="6.6665" width="3.33334" height="3.33334" transform="rotate(90 3.33325 6.6665)" fill="#FF0000"/>
<rect id="Rectangle 155" x="3.33325" y="9.99988" width="3.33334" height="3.33334" transform="rotate(90 3.33325 9.99988)" fill="#FF0000"/>
<rect id="Rectangle 156" x="3.33325" y="13.3334" width="3.33334" height="3.33334" transform="rotate(90 3.33325 13.3334)" fill="#FF0000"/>
<rect id="Rectangle 157" x="3.33325" y="16.6667" width="3.33334" height="3.33334" transform="rotate(90 3.33325 16.6667)" fill="#FF0000"/>
<rect id="Rectangle 158" x="3.33325" y="19.9998" width="3.33334" height="3.33334" transform="rotate(90 3.33325 19.9998)" fill="#FF0000"/>
<rect id="Rectangle 159" x="3.33325" y="23.3333" width="3.33334" height="3.33334" transform="rotate(90 3.33325 23.3333)" fill="#FF0000"/>
<rect id="Rectangle 102" x="10" y="30.0001" width="3.33334" height="3.33334" transform="rotate(-90 10 30.0001)" fill="#0065B3"/>
<rect id="Rectangle 107" x="20" y="30.0001" width="3.33334" height="3.33334" transform="rotate(90 20 30.0001)" fill="#0065B3"/>
<rect id="Rectangle 68" x="16.6667" y="26.6667" width="3.33334" height="3.33334" transform="rotate(-90 16.6667 26.6667)" fill="#0065B3"/>
<rect id="Rectangle 108" x="13.3334" y="33.3331" width="3.33334" height="3.33334" transform="rotate(90 13.3334 33.3331)" fill="#0065B3"/>
<rect id="Rectangle 130" x="10" y="33.3331" width="3.33334" height="3.33334" transform="rotate(90 10 33.3331)" fill="#0065B3"/>
<rect id="Rectangle 127" x="13.3334" y="36.6666" width="3.33334" height="3.33334" transform="rotate(90 13.3334 36.6666)" fill="#0065B3"/>
<rect id="Rectangle 69" x="13.3334" y="23.3333" width="3.33334" height="3.33334" transform="rotate(-90 13.3334 23.3333)" fill="#0065B3"/>
<rect id="Rectangle 150" x="16.6667" y="23.3333" width="3.33334" height="3.33334" transform="rotate(-90 16.6667 23.3333)" fill="#0065B3"/>
<rect id="Rectangle 149" x="10" y="23.3333" width="3.33334" height="3.33334" transform="rotate(-90 10 23.3333)" fill="#0065B3"/>
<rect id="Rectangle 115" x="13.3334" y="19.9998" width="3.33334" height="3.33334" transform="rotate(-90 13.3334 19.9998)" fill="white"/>
<rect id="Rectangle 116" x="13.3334" y="16.6667" width="3.33334" height="3.33334" transform="rotate(-90 13.3334 16.6667)" fill="white"/>
<rect id="Rectangle 117" x="13.3334" y="13.3334" width="3.33334" height="3.33334" transform="rotate(-90 13.3334 13.3334)" fill="white"/>
<rect id="Rectangle 119" x="16.6667" y="9.99988" width="3.33334" height="3.33334" transform="rotate(-90 16.6667 9.99988)" fill="white"/>
<rect id="Rectangle 121" x="16.6667" y="16.6667" width="3.33334" height="3.33334" transform="rotate(-90 16.6667 16.6667)" fill="white"/>
<rect id="Rectangle 124" x="20" y="16.6667" width="3.33334" height="3.33334" transform="rotate(-90 20 16.6667)" fill="white"/>
<rect id="Rectangle 125" x="6.66675" y="16.6667" width="3.33334" height="3.33334" transform="rotate(-90 6.66675 16.6667)" fill="white"/>
<rect id="Rectangle 120" x="10" y="9.99988" width="3.33334" height="3.33334" transform="rotate(-90 10 9.99988)" fill="white"/>
<rect id="Rectangle 122" x="10" y="16.6667" width="3.33334" height="3.33334" transform="rotate(-90 10 16.6667)" fill="white"/>
<rect id="Rectangle 118" x="13.3334" y="9.99988" width="3.33334" height="3.33334" transform="rotate(-90 13.3334 9.99988)" fill="white"/>
<rect id="Rectangle 123" x="13.3334" y="6.6665" width="3.33334" height="3.33334" transform="rotate(-90 13.3334 6.6665)" fill="white"/>
<rect id="Rectangle 109" x="16.6667" y="36.6666" width="3.33334" height="3.33334" transform="rotate(90 16.6667 36.6666)" fill="#0065B3"/>
<rect id="Rectangle 70" x="10" y="26.6667" width="3.33334" height="3.33334" transform="rotate(-90 10 26.6667)" fill="#0065B3"/>
<rect id="Rectangle 110" x="20" y="33.3331" width="3.33334" height="3.33334" transform="rotate(90 20 33.3331)" fill="#0065B3"/>
<rect id="Rectangle 129" x="23.3334" y="33.3331" width="3.33334" height="3.33334" transform="rotate(90 23.3334 33.3331)" fill="#0065B3"/>
<rect id="Rectangle 128" x="20" y="36.6666" width="3.33334" height="3.33334" transform="rotate(90 20 36.6666)" fill="#0065B3"/>
<rect id="Rectangle 71" x="20" y="30.0001" width="3.33334" height="3.33334" transform="rotate(-90 20 30.0001)" fill="#0065B3"/>
<rect id="Rectangle 111" x="10" y="30.0001" width="3.33334" height="3.33334" transform="rotate(90 10 30.0001)" fill="#0065B3"/>
<rect id="Rectangle 131" x="6.66675" y="30.0001" width="3.33334" height="3.33334" transform="rotate(90 6.66675 30.0001)" fill="#0065B3"/>
<rect id="Rectangle 103" x="16.6667" y="30.0001" width="3.33334" height="3.33334" transform="rotate(-90 16.6667 30.0001)" fill="#0065B3"/>
<rect id="Rectangle 112" x="13.3334" y="30.0001" width="3.33334" height="3.33334" transform="rotate(90 13.3334 30.0001)" fill="#0065B3"/>
<rect id="Rectangle 104" x="13.3334" y="30.0001" width="3.33334" height="3.33334" transform="rotate(-90 13.3334 30.0001)" fill="#0065B3"/>
<rect id="Rectangle 113" x="16.6667" y="30.0001" width="3.33334" height="3.33334" transform="rotate(90 16.6667 30.0001)" fill="#0065B3"/>
<rect id="Rectangle 105" x="13.3334" y="26.6667" width="3.33334" height="3.33334" transform="rotate(-90 13.3334 26.6667)" fill="#0065B3"/>
<rect id="Rectangle 114" x="16.6667" y="33.3331" width="3.33334" height="3.33334" transform="rotate(90 16.6667 33.3331)" fill="#0065B3"/>
<rect id="Rectangle 160" x="30" y="3.3335" width="3.33334" height="3.33334" transform="rotate(90 30 3.3335)" fill="#FF0000"/>
<rect id="Rectangle 161" x="30" y="6.6665" width="3.33334" height="3.33334" transform="rotate(90 30 6.6665)" fill="#FF0000"/>
<rect id="Rectangle 162" x="30" y="9.99988" width="3.33334" height="3.33334" transform="rotate(90 30 9.99988)" fill="#FF0000"/>
<rect id="Rectangle 163" x="30" y="13.3334" width="3.33334" height="3.33334" transform="rotate(90 30 13.3334)" fill="#FF0000"/>
<rect id="Rectangle 164" x="30" y="16.6667" width="3.33334" height="3.33334" transform="rotate(90 30 16.6667)" fill="#FF0000"/>
<rect id="Rectangle 165" x="30" y="19.9998" width="3.33334" height="3.33334" transform="rotate(90 30 19.9998)" fill="#FF0000"/>
<rect id="Rectangle 166" x="30" y="23.3333" width="3.33334" height="3.33334" transform="rotate(90 30 23.3333)" fill="#FF0000"/>
</g>
<path id="Dizajn syst&#195;&#169;m ID-SK" d="M46.848 29V13.352H51.264C52.464 13.352 53.544 13.504 54.504 13.808C55.464 14.112 56.288 14.584 56.976 15.224C57.664 15.848 58.192 16.648 58.56 17.624C58.928 18.6 59.112 19.76 59.112 21.104C59.112 22.448 58.928 23.616 58.56 24.608C58.192 25.6 57.672 26.424 57 27.08C56.328 27.72 55.52 28.2 54.576 28.52C53.648 28.84 52.608 29 51.456 29H46.848ZM50.376 26.144H51.048C51.72 26.144 52.328 26.056 52.872 25.88C53.416 25.704 53.88 25.424 54.264 25.04C54.648 24.64 54.944 24.12 55.152 23.48C55.376 22.84 55.488 22.048 55.488 21.104C55.488 20.176 55.376 19.4 55.152 18.776C54.944 18.136 54.648 17.632 54.264 17.264C53.88 16.88 53.416 16.608 52.872 16.448C52.328 16.288 51.72 16.208 51.048 16.208H50.376V26.144ZM61.7944 29V17.096H65.3224V29H61.7944ZM63.5464 15.344C62.9544 15.344 62.4664 15.176 62.0824 14.84C61.6984 14.488 61.5064 14.04 61.5064 13.496C61.5064 12.952 61.6984 12.512 62.0824 12.176C62.4664 11.84 62.9544 11.672 63.5464 11.672C64.1544 11.672 64.6424 11.84 65.0104 12.176C65.3944 12.512 65.5864 12.952 65.5864 13.496C65.5864 14.04 65.3944 14.488 65.0104 14.84C64.6424 15.176 64.1544 15.344 63.5464 15.344ZM67.7792 29V27.104L72.7712 19.856H68.3312V17.096H77.1632V18.968L72.1712 26.24H77.3312V29H67.7792ZM82.1381 29.288C81.5941 29.288 81.0981 29.192 80.6501 29C80.2181 28.824 79.8501 28.576 79.5461 28.256C79.2421 27.92 79.0021 27.536 78.8261 27.104C78.6661 26.672 78.5861 26.2 78.5861 25.688C78.5861 24.44 79.1141 23.464 80.1701 22.76C81.2261 22.056 82.9301 21.584 85.2821 21.344C85.2501 20.816 85.0901 20.4 84.8021 20.096C84.5301 19.776 84.0661 19.616 83.4101 19.616C82.8981 19.616 82.3861 19.712 81.8741 19.904C81.3781 20.096 80.8421 20.36 80.2661 20.696L78.9941 18.368C79.7621 17.904 80.5621 17.528 81.3941 17.24C82.2421 16.952 83.1381 16.808 84.0821 16.808C85.6181 16.808 86.7861 17.248 87.5861 18.128C88.4021 18.992 88.8101 20.344 88.8101 22.184V29H85.9301L85.6901 27.776H85.5941C85.0821 28.224 84.5461 28.592 83.9861 28.88C83.4261 29.152 82.8101 29.288 82.1381 29.288ZM83.3381 26.552C83.7381 26.552 84.0821 26.464 84.3701 26.288C84.6581 26.112 84.9621 25.864 85.2821 25.544V23.456C84.0341 23.632 83.1701 23.888 82.6901 24.224C82.2101 24.56 81.9701 24.96 81.9701 25.424C81.9701 25.808 82.0901 26.096 82.3301 26.288C82.5861 26.464 82.9221 26.552 83.3381 26.552ZM91.0984 33.704C90.6024 33.704 90.1944 33.672 89.8744 33.608C89.5384 33.544 89.2504 33.464 89.0104 33.368L89.6344 30.776C89.7944 30.824 89.9464 30.864 90.0904 30.896C90.2344 30.928 90.3944 30.944 90.5704 30.944C91.0344 30.944 91.3544 30.792 91.5304 30.488C91.7224 30.184 91.8184 29.696 91.8184 29.024V17.096H95.3464V28.928C95.3464 29.584 95.2744 30.2 95.1304 30.776C95.0024 31.352 94.7704 31.856 94.4344 32.288C94.1144 32.72 93.6824 33.064 93.1384 33.32C92.5944 33.576 91.9144 33.704 91.0984 33.704ZM93.5944 15.344C93.0024 15.344 92.5144 15.176 92.1304 14.84C91.7464 14.488 91.5544 14.04 91.5544 13.496C91.5544 12.952 91.7464 12.512 92.1304 12.176C92.5144 11.84 93.0024 11.672 93.5944 11.672C94.1864 11.672 94.6744 11.84 95.0584 12.176C95.4424 12.512 95.6344 12.952 95.6344 13.496C95.6344 14.04 95.4424 14.488 95.0584 14.84C94.6744 15.176 94.1864 15.344 93.5944 15.344ZM98.4741 29V17.096H101.354L101.594 18.608H101.69C102.202 18.128 102.762 17.712 103.37 17.36C103.978 16.992 104.69 16.808 105.506 16.808C106.802 16.808 107.738 17.232 108.314 18.08C108.906 18.928 109.202 20.104 109.202 21.608V29H105.674V22.064C105.674 21.2 105.554 20.608 105.314 20.288C105.09 19.968 104.722 19.808 104.21 19.808C103.762 19.808 103.378 19.912 103.058 20.12C102.738 20.312 102.386 20.592 102.002 20.96V29H98.4741ZM120.517 29.288C119.733 29.288 118.925 29.136 118.093 28.832C117.277 28.528 116.565 28.128 115.957 27.632L117.541 25.424C118.085 25.84 118.605 26.152 119.101 26.36C119.597 26.568 120.101 26.672 120.613 26.672C121.141 26.672 121.525 26.584 121.765 26.408C122.005 26.232 122.125 25.984 122.125 25.664C122.125 25.472 122.053 25.304 121.909 25.16C121.781 25 121.597 24.856 121.357 24.728C121.133 24.6 120.877 24.488 120.589 24.392C120.301 24.28 120.005 24.16 119.701 24.032C119.333 23.888 118.965 23.72 118.597 23.528C118.229 23.336 117.893 23.104 117.589 22.832C117.285 22.544 117.037 22.216 116.845 21.848C116.653 21.464 116.557 21.024 116.557 20.528C116.557 19.984 116.661 19.48 116.869 19.016C117.093 18.552 117.405 18.16 117.805 17.84C118.205 17.52 118.685 17.272 119.245 17.096C119.805 16.904 120.429 16.808 121.117 16.808C122.029 16.808 122.829 16.968 123.517 17.288C124.205 17.592 124.805 17.936 125.317 18.32L123.733 20.432C123.301 20.112 122.877 19.864 122.461 19.688C122.045 19.512 121.629 19.424 121.213 19.424C120.317 19.424 119.869 19.736 119.869 20.36C119.869 20.552 119.933 20.72 120.061 20.864C120.189 20.992 120.357 21.112 120.565 21.224C120.789 21.336 121.037 21.448 121.309 21.56C121.597 21.656 121.893 21.76 122.197 21.872C122.581 22.016 122.957 22.184 123.325 22.376C123.709 22.552 124.053 22.776 124.357 23.048C124.677 23.32 124.933 23.656 125.125 24.056C125.317 24.44 125.413 24.904 125.413 25.448C125.413 25.992 125.309 26.496 125.101 26.96C124.893 27.424 124.581 27.832 124.165 28.184C123.749 28.52 123.237 28.792 122.629 29C122.021 29.192 121.317 29.288 120.517 29.288ZM128.974 33.656C128.606 33.656 128.294 33.632 128.038 33.584C127.782 33.552 127.534 33.496 127.294 33.416L127.918 30.728C128.03 30.76 128.158 30.792 128.302 30.824C128.446 30.856 128.582 30.872 128.71 30.872C129.302 30.872 129.758 30.728 130.078 30.44C130.398 30.152 130.638 29.776 130.798 29.312L130.966 28.688L126.382 17.096H129.934L131.638 22.208C131.814 22.752 131.974 23.304 132.118 23.864C132.262 24.424 132.414 25 132.574 25.592H132.67C132.798 25.032 132.926 24.472 133.054 23.912C133.198 23.336 133.342 22.768 133.486 22.208L134.926 17.096H138.31L134.182 29.12C133.894 29.872 133.59 30.528 133.27 31.088C132.966 31.664 132.606 32.136 132.19 32.504C131.79 32.888 131.326 33.176 130.798 33.368C130.286 33.56 129.678 33.656 128.974 33.656ZM143.673 29.288C142.889 29.288 142.081 29.136 141.249 28.832C140.433 28.528 139.721 28.128 139.113 27.632L140.697 25.424C141.241 25.84 141.761 26.152 142.257 26.36C142.753 26.568 143.257 26.672 143.769 26.672C144.297 26.672 144.681 26.584 144.921 26.408C145.161 26.232 145.281 25.984 145.281 25.664C145.281 25.472 145.209 25.304 145.065 25.16C144.937 25 144.753 24.856 144.513 24.728C144.289 24.6 144.033 24.488 143.745 24.392C143.457 24.28 143.161 24.16 142.857 24.032C142.489 23.888 142.121 23.72 141.753 23.528C141.385 23.336 141.049 23.104 140.745 22.832C140.441 22.544 140.193 22.216 140.001 21.848C139.809 21.464 139.713 21.024 139.713 20.528C139.713 19.984 139.817 19.48 140.025 19.016C140.249 18.552 140.561 18.16 140.961 17.84C141.361 17.52 141.841 17.272 142.401 17.096C142.961 16.904 143.585 16.808 144.273 16.808C145.185 16.808 145.985 16.968 146.673 17.288C147.361 17.592 147.961 17.936 148.473 18.32L146.889 20.432C146.457 20.112 146.033 19.864 145.617 19.688C145.201 19.512 144.785 19.424 144.369 19.424C143.473 19.424 143.025 19.736 143.025 20.36C143.025 20.552 143.089 20.72 143.217 20.864C143.345 20.992 143.513 21.112 143.721 21.224C143.945 21.336 144.193 21.448 144.465 21.56C144.753 21.656 145.049 21.76 145.353 21.872C145.737 22.016 146.113 22.184 146.481 22.376C146.865 22.552 147.209 22.776 147.513 23.048C147.833 23.32 148.089 23.656 148.281 24.056C148.473 24.44 148.569 24.904 148.569 25.448C148.569 25.992 148.465 26.496 148.257 26.96C148.049 27.424 147.737 27.832 147.321 28.184C146.905 28.52 146.393 28.792 145.785 29C145.177 29.192 144.473 29.288 143.673 29.288ZM154.925 29.288C154.189 29.288 153.557 29.176 153.029 28.952C152.517 28.728 152.093 28.416 151.757 28.016C151.437 27.616 151.197 27.136 151.037 26.576C150.893 26 150.821 25.368 150.821 24.68V19.856H149.189V17.24L151.013 17.096L151.421 13.928H154.349V17.096H157.205V19.856H154.349V24.632C154.349 25.304 154.485 25.792 154.757 26.096C155.045 26.384 155.421 26.528 155.885 26.528C156.077 26.528 156.269 26.504 156.461 26.456C156.669 26.408 156.853 26.352 157.013 26.288L157.565 28.856C157.245 28.952 156.869 29.048 156.437 29.144C156.005 29.24 155.501 29.288 154.925 29.288ZM164.435 29.288C163.587 29.288 162.795 29.152 162.059 28.88C161.323 28.592 160.683 28.184 160.139 27.656C159.595 27.112 159.171 26.456 158.867 25.688C158.563 24.92 158.411 24.04 158.411 23.048C158.411 22.088 158.571 21.224 158.891 20.456C159.211 19.672 159.627 19.016 160.139 18.488C160.667 17.944 161.267 17.528 161.939 17.24C162.611 16.952 163.307 16.808 164.027 16.808C164.875 16.808 165.611 16.952 166.235 17.24C166.875 17.528 167.403 17.928 167.819 18.44C168.251 18.952 168.571 19.56 168.779 20.264C168.987 20.952 169.091 21.704 169.091 22.52C169.091 22.84 169.075 23.144 169.043 23.432C169.011 23.72 168.979 23.936 168.947 24.08H161.819C161.979 24.944 162.331 25.584 162.875 26C163.435 26.4 164.115 26.6 164.915 26.6C165.763 26.6 166.619 26.336 167.483 25.808L168.659 27.944C168.051 28.36 167.371 28.688 166.619 28.928C165.883 29.168 165.155 29.288 164.435 29.288ZM161.795 21.752H166.091C166.091 21.08 165.939 20.536 165.635 20.12C165.331 19.704 164.819 19.496 164.099 19.496C163.539 19.496 163.043 19.68 162.611 20.048C162.195 20.416 161.923 20.984 161.795 21.752ZM164.267 15.272L162.539 13.544L166.235 9.176L168.611 11.504L164.267 15.272ZM171.529 29V17.096H174.409L174.649 18.632H174.745C175.241 18.136 175.769 17.712 176.329 17.36C176.889 16.992 177.561 16.808 178.345 16.808C179.193 16.808 179.873 16.984 180.385 17.336C180.913 17.672 181.329 18.16 181.633 18.8C182.161 18.256 182.713 17.792 183.289 17.408C183.881 17.008 184.577 16.808 185.377 16.808C186.657 16.808 187.593 17.24 188.185 18.104C188.793 18.952 189.097 20.12 189.097 21.608V29H185.569V22.064C185.569 21.2 185.449 20.608 185.209 20.288C184.985 19.968 184.617 19.808 184.105 19.808C183.513 19.808 182.833 20.192 182.065 20.96V29H178.537V22.064C178.537 21.2 178.417 20.608 178.177 20.288C177.953 19.968 177.585 19.808 177.073 19.808C176.465 19.808 175.793 20.192 175.057 20.96V29H171.529ZM197.2 29V13.352H200.728V29H197.2ZM204.418 29V13.352H208.834C210.034 13.352 211.114 13.504 212.074 13.808C213.034 14.112 213.858 14.584 214.546 15.224C215.234 15.848 215.762 16.648 216.13 17.624C216.498 18.6 216.682 19.76 216.682 21.104C216.682 22.448 216.498 23.616 216.13 24.608C215.762 25.6 215.242 26.424 214.57 27.08C213.898 27.72 213.09 28.2 212.146 28.52C211.218 28.84 210.178 29 209.026 29H204.418ZM207.946 26.144H208.618C209.29 26.144 209.898 26.056 210.442 25.88C210.986 25.704 211.45 25.424 211.834 25.04C212.218 24.64 212.514 24.12 212.722 23.48C212.946 22.84 213.058 22.048 213.058 21.104C213.058 20.176 212.946 19.4 212.722 18.776C212.514 18.136 212.218 17.632 211.834 17.264C211.45 16.88 210.986 16.608 210.442 16.448C209.898 16.288 209.29 16.208 208.618 16.208H207.946V26.144ZM218.837 24.176V21.68H224.741V24.176H218.837ZM231.765 29.288C230.741 29.288 229.717 29.104 228.693 28.736C227.685 28.352 226.781 27.784 225.981 27.032L227.997 24.608C228.557 25.088 229.173 25.48 229.845 25.784C230.533 26.088 231.205 26.24 231.861 26.24C232.597 26.24 233.141 26.104 233.493 25.832C233.861 25.56 234.045 25.192 234.045 24.728C234.045 24.488 233.989 24.28 233.877 24.104C233.781 23.928 233.629 23.776 233.421 23.648C233.229 23.504 232.989 23.376 232.701 23.264C232.429 23.136 232.125 23 231.789 22.856L229.749 21.992C229.349 21.832 228.957 21.624 228.573 21.368C228.205 21.112 227.869 20.816 227.565 20.48C227.277 20.128 227.045 19.728 226.869 19.28C226.693 18.816 226.605 18.296 226.605 17.72C226.605 17.08 226.741 16.48 227.013 15.92C227.285 15.344 227.669 14.848 228.165 14.432C228.661 14 229.245 13.664 229.917 13.424C230.605 13.184 231.357 13.064 232.173 13.064C233.085 13.064 233.981 13.24 234.861 13.592C235.757 13.944 236.541 14.456 237.213 15.128L235.413 17.36C234.901 16.96 234.389 16.656 233.877 16.448C233.365 16.224 232.797 16.112 232.173 16.112C231.565 16.112 231.077 16.24 230.709 16.496C230.357 16.736 230.181 17.08 230.181 17.528C230.181 17.768 230.237 17.976 230.349 18.152C230.477 18.312 230.645 18.464 230.853 18.608C231.077 18.736 231.333 18.864 231.621 18.992C231.909 19.104 232.221 19.232 232.557 19.376L234.573 20.192C235.533 20.576 236.285 21.104 236.829 21.776C237.389 22.448 237.669 23.336 237.669 24.44C237.669 25.096 237.533 25.72 237.261 26.312C237.005 26.888 236.621 27.4 236.109 27.848C235.613 28.28 234.997 28.632 234.261 28.904C233.525 29.16 232.693 29.288 231.765 29.288ZM240.325 29V13.352H243.853V19.76H243.949L248.605 13.352H252.493L247.765 19.592L253.357 29H249.493L245.677 22.4L243.853 24.8V29H240.325Z" fill="#003078"/>
</g>
</svg>
