<?xml version="1.0" encoding="UTF-8" standalone="no"?>
<svg
   xmlns:dc="http://purl.org/dc/elements/1.1/"
   xmlns:cc="http://creativecommons.org/ns#"
   xmlns:rdf="http://www.w3.org/1999/02/22-rdf-syntax-ns#"
   xmlns:svg="http://www.w3.org/2000/svg"
   xmlns="http://www.w3.org/2000/svg"
   xmlns:sodipodi="http://sodipodi.sourceforge.net/DTD/sodipodi-0.dtd"
   xmlns:inkscape="http://www.inkscape.org/namespaces/inkscape"
   version="1.1"
   id="svg2"
   xml:space="preserve"
   width="2354.4934"
   height="535.28003"
   viewBox="0 0 2354.4934 535.28003"
   sodipodi:docname="logo miiri biele sk.eps">
   <metadata
      id="metadata8">
      <rdf:RDF>
         <cc:Work
            rdf:about="">
            <dc:format>image/svg+xml</dc:format>
            <dc:type
               rdf:resource="http://purl.org/dc/dcmitype/StillImage" />
         </cc:Work>
      </rdf:RDF>
   </metadata>
   <defs
      id="defs6" />
   <sodipodi:namedview
      pagecolor="#ffffff"
      bordercolor="#666666"
      borderopacity="1"
      objecttolerance="10"
      gridtolerance="10"
      guidetolerance="10"
      inkscape:pageopacity="0"
      inkscape:pageshadow="2"
      inkscape:window-width="640"
      inkscape:window-height="480"
      id="namedview4" />
   <g
      id="g10"
      inkscape:groupmode="layer"
      inkscape:label="ink_ext_XXXXXX"
      transform="matrix(1.3333333,0,0,-1.3333333,0,535.28)">
      <g
         id="g12"
         transform="scale(0.1)">
         <path
            d="m 9097.01,3032.91 h -6444.8 v 92.28 h 6444.8 v -92.28"
            style="fill:#ffffff;fill-opacity:1;fill-rule:nonzero;stroke:none"
            id="path14" />
         <path
            d="m 9097.01,3032.91 h -6444.8 v 92.28 h 6444.8 z"
            style="fill:none;stroke:#ffffff;stroke-width:10;stroke-linecap:butt;stroke-linejoin:miter;stroke-miterlimit:10;stroke-dasharray:none;stroke-opacity:1"
            id="path16" />
         <path
            d="m 3273.27,3394.1 v 408.49 L 3062.02,3394.1 h -83.42 l -204.95,401.4 v -401.4 h -93.74 v 612.79 h 101.3 l 241.7,-490.56 250.36,490.56 h 93.66 V 3394.1 h -93.66"
            style="fill:#ffffff;fill-opacity:1;fill-rule:nonzero;stroke:none"
            id="path18" />
         <path
            d="m 3663.18,3394.1 h -93.66 v 612.79 h 93.66 V 3394.1"
            style="fill:#ffffff;fill-opacity:1;fill-rule:nonzero;stroke:none"
            id="path20" />
         <path
            d="m 4473.37,4006.89 v -612.7 h -75.7 l -438.25,455.94 v -455.94 h -93.49 v 612.7 h 76.42 l 437.44,-456.87 v 456.87 h 93.58"
            style="fill:#ffffff;fill-opacity:1;fill-rule:nonzero;stroke:none"
            id="path22" />
         <path
            d="m 4769.63,3394.1 h -93.66 v 612.79 h 93.66 V 3394.1"
            style="fill:#ffffff;fill-opacity:1;fill-rule:nonzero;stroke:none"
            id="path24" />
         <path
            d="m 4962.14,3537.51 c 27.25,-31.17 87.44,-65.48 136.42,-65.48 56.96,0 98.2,32.65 98.2,88.85 0,106.1 -255.72,91.22 -255.72,278.39 0,109.08 90.67,175.35 179.46,175.35 57.53,0 101.29,-21.01 125.37,-42.11 v -119.16 c -21.71,32.04 -68.4,74.93 -124.66,74.93 -52.35,0 -85.79,-35.26 -85.79,-85 0,-114.83 258.07,-95.32 258.07,-278.54 0,-114.68 -95.86,-181.74 -197.95,-181.74 -57.06,0 -104.6,22.05 -133.4,47.72 v 106.79"
            style="fill:#ffffff;fill-opacity:1;fill-rule:nonzero;stroke:none"
            id="path26" />
         <path
            d="m 5336.3,4006.89 h 492.86 v -87.34 h -199.59 v -525.36 h -93.67 v 525.36 h -199.6 v 87.34"
            style="fill:#ffffff;fill-opacity:1;fill-rule:nonzero;stroke:none"
            id="path28" />
         <path
            d="M 6212.86,3394.1 H 5926.6 v 612.79 h 286.26 v -87.26 h -192.51 v -175.44 h 136.31 v -86.66 h -136.31 v -177.01 h 192.51 v -86.42"
            style="fill:#ffffff;fill-opacity:1;fill-rule:nonzero;stroke:none"
            id="path30" />
         <path
            d="m 6480.3,3709.91 h 35.8 c 81.23,0 131.76,33.42 131.76,107.56 0,70.83 -49.19,102.16 -129.31,102.16 h -38.25 z m 85.79,-81.97 c -17.08,-2.36 -35.18,-3.77 -53.76,-3.77 H 6480.3 V 3394.1 h -93.75 v 612.79 h 128.77 c 141.2,0 233.21,-57.75 233.21,-191.08 0,-70.83 -33.61,-123.26 -87.37,-155.05 L 6903.57,3394.1 H 6771.9 l -205.81,233.84"
            style="fill:#ffffff;fill-opacity:1;fill-rule:nonzero;stroke:none"
            id="path32" />
         <path
            d="m 6948.05,3537.51 c 27.22,-31.17 87.21,-65.48 136.39,-65.48 56.99,0 98.3,32.65 98.3,88.85 0,106.1 -255.79,91.22 -255.79,278.39 0,109.08 90.43,175.35 179.45,175.35 57.61,0 101.3,-21.01 125.46,-42.11 v -119.16 c -21.8,32.04 -68.72,74.93 -124.67,74.93 -52.42,0 -85.79,-35.26 -85.79,-85 0,-114.83 257.99,-95.32 257.99,-278.54 0,-114.68 -95.86,-181.74 -198.01,-181.74 -56.99,0 -104.53,22.05 -133.33,47.72 v 106.79"
            style="fill:#ffffff;fill-opacity:1;fill-rule:nonzero;stroke:none"
            id="path34" />
         <path
            d="m 7318.51,4006.89 h 492.78 v -87.34 h -199.75 v -525.36 h -93.51 v 525.36 h -199.52 v 87.34"
            style="fill:#ffffff;fill-opacity:1;fill-rule:nonzero;stroke:none"
            id="path36" />
         <path
            d="m 8115.96,3501.7 183.22,505.19 h 100.67 l -237.77,-612.7 h -98.31 l -221.47,612.7 h 100.59 l 173.07,-505.19"
            style="fill:#ffffff;fill-opacity:1;fill-rule:nonzero;stroke:none"
            id="path38" />
         <path
            d="m 8781.11,3468.8 c 137.42,2.52 221.64,107.04 219.2,237.06 -3.23,133.41 -86.66,217.54 -215.89,218.33 -158.36,-0.79 -217.24,-136.24 -216.38,-226.75 -1.97,-105.31 56.44,-226.99 213.07,-228.64 m 3.31,541.97 c 180.07,-1.58 308.5,-116.18 312.53,-300.86 3.23,-181.06 -126.49,-324.46 -317.42,-327.57 -217.46,2.4 -310.99,169.33 -308.89,315.1 -0.68,126.24 93.86,312.61 313.78,313.33"
            style="fill:#ffffff;fill-opacity:1;fill-rule:nonzero;stroke:none"
            id="path40" />
         <path
            d="m 2669.92,347.641 c 27.15,-31.012 87.19,-65.493 136.31,-65.493 57.06,0 98.31,32.821 98.31,89.024 0,105.937 -255.8,91.219 -255.8,278.387 0,109.093 90.43,175.363 179.45,175.363 57.61,0 101.29,-21.184 125.46,-42.121 V 663.32 c -21.74,32.121 -68.71,75.012 -124.91,75.012 -52.18,0 -85.55,-35.012 -85.55,-85 0,-114.594 257.99,-94.992 257.99,-278.301 0,-114.59 -95.86,-181.652 -197.94,-181.652 -57.06,0 -104.52,21.723 -133.32,47.461 v 106.801"
            style="fill:#ffffff;fill-opacity:1;fill-rule:nonzero;stroke:none"
            id="path42" />
         <path
            d="m 3480.66,204.23 h -323.64 v 612.809 h 93.66 V 290.82 h 229.98 v -86.59"
            style="fill:#ffffff;fill-opacity:1;fill-rule:nonzero;stroke:none"
            id="path44" />
         <path
            d="m 3843.96,279.09 c 137.43,2.199 221.64,106.719 219.12,237.051 -2.99,133.418 -86.58,217.629 -215.8,218.339 -158.36,-0.71 -217,-136.55 -216.06,-226.91 -2.27,-105.39 56.12,-226.949 212.74,-228.48 m 3.32,541.742 C 4027.35,819.48 4156.04,704.891 4159.74,520 c 3.3,-180.852 -126.17,-324.398 -317.35,-327.488 -217.54,2.437 -310.96,169.136 -308.76,315.058 -0.78,126.239 93.66,312.782 313.65,313.262"
            style="fill:#ffffff;fill-opacity:1;fill-rule:nonzero;stroke:none"
            id="path46" />
         <path
            d="m 4488.88,311.75 183.31,505.289 h 100.43 L 4534.77,204.23 h -98.07 l -221.48,612.809 h 100.51 L 4488.88,311.75"
            style="fill:#ffffff;fill-opacity:1;fill-rule:nonzero;stroke:none"
            id="path48" />
         <path
            d="M 5171.81,204.23 H 4885.8 v 612.809 h 286.01 V 729.73 H 4979.3 V 554.16 h 136.55 V 467.832 H 4979.3 V 290.82 h 192.51 v -86.59"
            style="fill:#ffffff;fill-opacity:1;fill-rule:nonzero;stroke:none"
            id="path50" />
         <path
            d="M 5945.42,817.039 V 204.23 h -75.85 L 5431.62,660.422 V 204.23 h -93.66 v 612.809 h 76.28 L 5851.67,360.07 v 456.969 h 93.75"
            style="fill:#ffffff;fill-opacity:1;fill-rule:nonzero;stroke:none"
            id="path52" />
         <path
            d="m 6122.34,347.641 c 27.24,-31.012 87.21,-65.493 136.32,-65.493 57.06,0 98.3,32.821 98.3,89.024 0,105.937 -255.79,91.219 -255.79,278.387 0,109.093 90.51,175.363 179.45,175.363 57.61,0 101.29,-21.184 125.54,-42.121 V 663.32 c -21.8,32.121 -68.72,75.012 -124.75,75.012 -52.34,0 -85.79,-35.012 -85.79,-85 0,-114.594 258.07,-94.992 258.07,-278.301 0,-114.59 -95.86,-181.652 -198.02,-181.652 -56.98,0 -104.52,21.723 -133.33,47.461 v 106.801"
            style="fill:#ffffff;fill-opacity:1;fill-rule:nonzero;stroke:none"
            id="path54" />
         <path
            d="m 6703.11,817.039 v -301.68 l 267.6,301.68 h 124.8 L 6811.49,509.141 7093.11,204.23 H 6966.86 L 6703.11,496.629 V 204.23 h -93.34 v 612.809 h 93.34"
            style="fill:#ffffff;fill-opacity:1;fill-rule:nonzero;stroke:none"
            id="path56" />
         <path
            d="m 7502.29,204.23 h -285.94 v 612.809 h 285.94 V 729.73 H 7309.77 V 554.16 h 136.48 V 467.832 H 7309.77 V 290.82 h 192.52 v -86.59"
            style="fill:#ffffff;fill-opacity:1;fill-rule:nonzero;stroke:none"
            id="path58" />
         <path
            d="m 7607.6,70.1211 c 54.62,46.6489 81.22,112.3089 82.01,189.4489 v 557.469 h 94.21 V 260.441 C 7783.82,150.48 7742.58,61.6289 7667.65,0 l -60.05,70.1211"
            style="fill:#ffffff;fill-opacity:1;fill-rule:nonzero;stroke:none"
            id="path60" />
         <path
            d="m 8345.31,520 h 35.82 c 80.97,0 131.75,33.652 131.75,107.59 0,71.09 -49.13,102.14 -129.44,102.14 h -38.13 z m 85.74,-81.77 c -17.28,-2.429 -35.17,-4.019 -53.87,-4.019 h -31.87 V 204.23 h -93.66 v 612.809 h 128.69 c 141.07,0 233.28,-57.527 233.28,-190.93 0,-71.078 -33.83,-123.257 -87.43,-155.218 L 8768.67,204.23 h -131.75 l -205.87,234"
            style="fill:#ffffff;fill-opacity:1;fill-rule:nonzero;stroke:none"
            id="path62" />
         <path
            d="m 9113.46,204.23 h -286.39 v 612.809 h 286.39 V 729.73 H 8920.41 V 554.16 h 136.64 V 467.832 H 8920.41 V 290.82 h 193.05 v -86.59"
            style="fill:#ffffff;fill-opacity:1;fill-rule:nonzero;stroke:none"
            id="path64" />
         <path
            d="m 9365.09,520 h 35.9 c 80.91,0 131.76,33.652 131.76,107.59 0,71.09 -49.19,102.14 -129.24,102.14 h -38.42 z m 0,-85.789 V 204.23 h -93.82 v 612.809 h 128.94 c 140.96,0 233.29,-57.527 233.29,-190.93 0,-124.039 -104.85,-191.898 -236.53,-191.898 h -31.88"
            style="fill:#ffffff;fill-opacity:1;fill-rule:nonzero;stroke:none"
            id="path66" />
         <path
            d="M 9836.08,817.039 V 523.781 c 0,-126.242 56.66,-246.261 198.22,-246.261 116.7,0 196.9,92.781 196.9,245.769 v 293.75 h 93.8 V 523.781 c 0,-198.73 -120,-331.269 -290.7,-331.269 -203.11,0 -291.72,137.98 -291.72,330.777 v 293.75 h 93.5"
            style="fill:#ffffff;fill-opacity:1;fill-rule:nonzero;stroke:none"
            id="path68" />
         <path
            d="m 10627.5,477.109 h -37.4 V 290.82 h 34.1 c 97.6,0 160.8,12.512 160.8,91.219 0,78.781 -67.3,95.07 -157.5,95.07 m -11.6,86.582 c 72.4,0 114.3,25.02 114.3,81.688 0,69.57 -68.5,85.082 -126.9,85.082 h -13.2 V 563.691 Z M 10496.6,204.23 v 612.809 h 87 c 137.3,0 241.6,-42.891 241.6,-166.777 0,-60.75 -32.5,-96.102 -89.4,-113.18 88.3,-16.293 146.7,-63.832 146.7,-153.473 0,-150.648 -144.1,-179.379 -269.9,-179.379 h -116"
            style="fill:#ffffff;fill-opacity:1;fill-rule:nonzero;stroke:none"
            id="path70" />
         <path
            d="m 11361.7,204.23 h -323.4 v 612.809 h 93.4 V 290.82 h 230 v -86.59"
            style="fill:#ffffff;fill-opacity:1;fill-rule:nonzero;stroke:none"
            id="path72" />
         <path
            d="m 11562.4,204.23 h -93.8 v 612.809 h 93.8 V 204.23"
            style="fill:#ffffff;fill-opacity:1;fill-rule:nonzero;stroke:none"
            id="path74" />
         <path
            d="m 11866.5,817.039 v -301.68 l 267.5,301.68 h 124.4 l -283.6,-307.898 281.6,-304.911 h -126.5 l -263.4,292.399 V 204.23 h -94 v 612.809 h 94"
            style="fill:#ffffff;fill-opacity:1;fill-rule:nonzero;stroke:none"
            id="path76" />
         <path
            d="m 12585.4,204.23 h -93.8 v 243.282 l -201.8,369.527 h 107.5 l 146.7,-276.641 140.1,276.641 h 107.5 l -206.2,-371.18 V 204.23"
            style="fill:#ffffff;fill-opacity:1;fill-rule:nonzero;stroke:none"
            id="path78" />
         <path
            d="m 1996.04,2771.41 c -4.56,-221.49 -69.53,-439.8 -193.15,-648.19 l -4.54,-7.75 -3.71,8.22 c -30.17,67.19 -87.32,153.44 -187.35,182.11 -82.54,23.97 -164.59,2.01 -239.72,-62.93 l -5.05,-4.43 -2.43,6.23 c -18.37,49.03 -65.42,143.69 -162.83,194.6 -53.72,30.83 -120.57,34.44 -146.11,34.44 -28.16,0 -92.4,-0.82 -153.341,-35.06 -99.153,-50.54 -147.297,-142.7 -166.243,-190.52 l -2.55,-6 -4.899,4.17 c -36.961,31.85 -96.804,70.07 -171.137,70.07 -28.039,0 -56.542,-5.42 -84.55,-16.29 -78.371,-30.05 -135.032,-105.77 -168.789,-164.04 l -4.028,-6.82 -4.129,6.66 c -120.316,203.26 -186.132,419.47 -195.3121,642.52 -4.6289,112.69 -7.0547,231.14 -7.0547,351.78 0,372.42 22.0738,673.22 31.6248,785.32 l 0.43,4.27 H 1979.79 l 0.13,-4.53 c 5.84,-121.28 19.09,-445.48 19.09,-831.89 0,-107.89 -0.85,-212.68 -2.97,-311.94 m -255.81,-745.33 c -175.88,-252.57 -426.28,-458.33 -686.61,-564.44 l -1.86,-0.69 -1.8,0.69 c -271.312,118.47 -526.757,331.63 -700.937,584.35 l -1.425,2.33 1.062,2.52 c 14.903,32.5 69.68,141.76 149.332,172.2 18.672,7.29 37.774,10.87 56.41,10.87 95.563,0 157.336,-92.61 159.891,-96.49 l 58.457,-88.16 16.727,104.45 c 1.515,9.69 40.507,237.56 261.673,237.56 210.95,0 248.48,-231.87 250,-241.68 l 15.09,-102.83 59.67,85.12 c 2.85,4.32 71.35,100.61 167.63,100.61 13.75,0 27.5,-1.92 41.04,-5.89 99.2,-28.64 142.42,-146.95 156.41,-196.56 l 0.67,-2.09 z m 326.21,1940.77 -2.27,41.93 H 39.9961 l -3.9844,-40.01 C 35.4609,3963.35 -19.0039,3401.25 7.0625,2774.61 35.3438,2094.33 559.098,1570.34 1033.97,1371.08 l 16.51,-6.72 16.79,6.4 c 483.27,187.05 1004.25,741.05 1017.78,1398.86 12.66,620.48 -18.24,1191.72 -18.61,1197.23"
            style="fill:#ffffff;fill-opacity:1;fill-rule:nonzero;stroke:none"
            id="path80" />
         <path
            d="m 1044.1,3743.28 c 9.99,-0.47 101.1,4.53 101.1,4.53 -55.78,-273.1 -48.91,-390.31 -48.91,-390.31 227.04,-13.75 435,45.78 435,45.78 -5,-47.5 -0.21,-197.4 -0.21,-197.4 -206.24,57.08 -434,45.68 -434,45.68 v -354.85 c 387.03,-10 549.42,45 549.42,45 -5.83,-69.58 0.42,-198.12 0.42,-198.12 -256.88,61.87 -549.84,45.94 -549.84,45.94 v -380.68 h 2.03 76.25 1.72 l -0.16,300.99 c 351.87,10 556.87,-76.41 556.87,-76.41 -21.53,278.68 0,418.28 0,418.28 -225.62,-87.5 -556.87,-76.4 -556.87,-76.4 l 0.62,195.78 c 206.88,8.12 440.63,-75.63 440.63,-75.63 -20.42,227.5 0,417.5 0,417.5 -188.75,-73.75 -437.5,-76.87 -437.5,-76.87 -1.88,94.37 66.72,399.22 66.72,399.22 -61.72,-6.1 -203.29,-11.93 -203.29,-11.93 0,0 -141.577,5.83 -203.295,11.93 0,0 68.593,-304.85 66.718,-399.22 0,0 -248.75,3.12 -437.5,76.87 0,0 20.415,-190 0,-417.5 0,0 233.75,83.75 440.625,75.63 l 0.625,-195.78 c 0,0 -331.25,-11.1 -556.875,76.4 0,0 21.54,-139.6 0,-418.28 0,0 205,86.41 556.875,76.41 l -0.156,-300.99 h 1.742 76.454 1.804 v 380.68 c 0,0 -292.969,15.93 -549.844,-45.94 0,0 6.247,128.54 0.415,198.12 0,0 162.398,-55 549.429,-45 v 354.85 c 0,0 -227.762,11.4 -434.008,-45.68 0,0 4.789,149.9 -0.211,197.4 0,0 207.969,-59.53 435,-45.78 0,0 6.875,117.21 -48.906,390.31 0,0 91.118,-5 101.108,-4.53"
            style="fill:#ffffff;fill-opacity:1;fill-rule:nonzero;stroke:none"
            id="path82" />
         <path
            d="m 2743.04,2631.82 v -617.78 h -94.3 v 617.78 h 94.3"
            style="fill:#ffffff;fill-opacity:1;fill-rule:nonzero;stroke:none"
            id="path84" />
         <path
            d="m 3481,2631.82 v -617.78 h -76.18 L 2963.1,2473.9 v -459.86 h -94.3 v 617.78 h 77 l 440.89,-460.53 v 460.53 H 3481"
            style="fill:#ffffff;fill-opacity:1;fill-rule:nonzero;stroke:none"
            id="path86" />
         <path
            d="m 3827.59,2122.47 184.72,509.35 h 101.37 L 3874,2014.04 h -99.09 l -223.14,617.78 h 101.37 l 174.45,-509.35"
            style="fill:#ffffff;fill-opacity:1;fill-rule:nonzero;stroke:none"
            id="path88" />
         <path
            d="m 4468.95,2014.04 h -288.48 v 617.78 h 288.48 v -88.03 h -194.18 v -176.85 h 137.5 v -87.22 h -137.5 v -178.45 h 194.18 v -87.23"
            style="fill:#ffffff;fill-opacity:1;fill-rule:nonzero;stroke:none"
            id="path90" />
         <path
            d="m 4555.36,2158.74 c 27.47,-31.47 88.02,-66.01 137.5,-66.01 57.35,0 99.09,32.94 99.09,89.5 0,106.95 -257.8,92.01 -257.8,280.61 0,110.03 91.1,176.85 180.72,176.85 58.15,0 102.16,-21.21 126.57,-42.42 v -120.3 c -22.01,32.28 -69.22,75.49 -125.77,75.49 -52.68,0 -86.43,-35.34 -86.43,-85.63 0,-115.62 260.08,-95.89 260.08,-280.61 0,-115.51 -96.65,-183.12 -199.57,-183.12 -57.44,0 -105.32,22.01 -134.39,47.89 v 107.75"
            style="fill:#ffffff;fill-opacity:1;fill-rule:nonzero;stroke:none"
            id="path92" />
         <path
            d="m 4920.79,2631.82 h 496.68 v -88.03 h -201.13 v -529.75 h -94.33 v 529.75 h -201.22 v 88.03"
            style="fill:#ffffff;fill-opacity:1;fill-rule:nonzero;stroke:none"
            id="path94" />
         <path
            d="m 5574.69,2631.82 v -617.78 h -94.3 v 617.78 z m -56.62,28.28 -50.35,48.01 113.23,117.1 52.69,-55.08 -115.57,-110.03"
            style="fill:#ffffff;fill-opacity:1;fill-rule:nonzero;stroke:none"
            id="path96" />
         <path
            d="m 5669.78,2319.86 c -0.8,127.24 94.29,319.83 315.95,319.83 87.23,0 153.24,-24.41 196.46,-58.96 v -111.62 c -44.81,44.81 -99.81,83.35 -196.46,83.35 -159.61,0 -218.53,-141.51 -217.79,-232.6 0,-99.89 58.18,-228.73 217.79,-228.73 82.45,0 152.44,29.07 196.46,70.69 v -98.97 c -48.71,-36.14 -102.96,-58.95 -196.46,-58.95 -221.66,0.8 -315.95,176.05 -315.95,315.16 v 0.8"
            style="fill:#ffffff;fill-opacity:1;fill-rule:nonzero;stroke:none"
            id="path98" />
         <path
            d="m 6370.75,2631.82 v -617.78 h -94.29 v 617.78 h 94.29"
            style="fill:#ffffff;fill-opacity:1;fill-rule:nonzero;stroke:none"
            id="path100" />
         <path
            d="m 6590.8,2631.82 v -617.78 h -94.29 v 617.78 z m -56.54,28.28 -50.29,48.01 113.11,117.1 52.68,-55.08 -115.5,-110.03"
            style="fill:#ffffff;fill-opacity:1;fill-rule:nonzero;stroke:none"
            id="path102" />
         <path
            d="m 6823.41,2109.94 c 2.4,-69.9 -11.74,-142.19 -55.75,-181.53 h -94.3 c 40.81,54.28 55.75,110.03 55.75,181.53 h 94.3"
            style="fill:#ffffff;fill-opacity:1;fill-rule:nonzero;stroke:none"
            id="path104" />
         <path
            d="m 7166.16,2332.4 h 36.15 c 81.75,0 132.83,33.74 132.83,108.43 0,71.49 -49.61,102.96 -130.56,102.96 h -38.42 z m 86.43,-82.56 c -17.33,-2.39 -35.35,-3.87 -54.28,-3.87 h -32.15 v -231.93 h -94.35 v 617.78 h 129.7 c 142.19,0 235,-58.15 235,-192.59 0,-71.49 -33.87,-124.17 -88.03,-156.31 l 244.47,-268.88 H 7460.1 l -207.51,235.8"
            style="fill:#ffffff;fill-opacity:1;fill-rule:nonzero;stroke:none"
            id="path106" />
         <path
            d="m 7908.76,2014.04 h -288.35 v 617.78 h 288.35 v -88.03 h -194.18 v -176.85 h 137.62 v -87.22 h -137.62 v -178.45 h 194.18 v -87.23"
            style="fill:#ffffff;fill-opacity:1;fill-rule:nonzero;stroke:none"
            id="path108" />
         <path
            d="m 7974.1,2319.86 c 0,127.24 92.56,319.83 323.82,319.83 69.09,0 145.38,-14.94 188.58,-41.62 v -111.63 c -44.81,37.75 -106.15,66.02 -188.58,66.02 -168.32,0 -225.66,-141.51 -225.66,-232.6 0,-99.89 58.15,-228.73 217.66,-228.73 59.76,0 94.41,9.41 133.63,25.08 v 180.84 h 94.43 v -224.86 c -58.16,-40.02 -134.45,-68.29 -228.06,-68.29 -221.66,0.8 -315.82,176.05 -315.82,315.16 v 0.8"
            style="fill:#ffffff;fill-opacity:1;fill-rule:nonzero;stroke:none"
            id="path110" />
         <path
            d="m 8722.28,2631.82 v -617.78 h -94.41 v 617.78 h 94.41"
            style="fill:#ffffff;fill-opacity:1;fill-rule:nonzero;stroke:none"
            id="path112" />
         <path
            d="m 9130.13,2089.53 c 138.19,2.4 223.26,107.63 220.88,238.87 -3.2,134.44 -87.25,219.27 -217.68,220.06 -159.68,-0.79 -218.53,-137.51 -217.91,-228.6 -2.14,-106.16 56.8,-228.73 214.71,-230.33 z m 3.2,546.16 c 181.39,-1.47 311.04,-117.1 315.04,-303.29 3.19,-182.32 -127.24,-327.03 -319.84,-330.1 -219.26,2.4 -313.67,170.58 -311.27,317.56 -0.8,127.24 94.41,315.16 316.07,315.83"
            style="fill:#ffffff;fill-opacity:1;fill-rule:nonzero;stroke:none"
            id="path114" />
         <path
            d="m 10155.8,2631.82 v -617.78 h -76.3 l -441.77,459.86 v -459.86 h -94.16 v 617.78 h 76.84 l 440.89,-460.53 v 460.53 h 94.5"
            style="fill:#ffffff;fill-opacity:1;fill-rule:nonzero;stroke:none"
            id="path116" />
         <path
            d="m 10487.3,2660.1 -50.2,48.01 113.1,117.1 52.6,-55.08 z m -54.9,-348.91 h 146.1 l -72.3,208.2 z m 122.7,320.63 228.5,-617.78 h -101.3 l -73.1,209.92 h -207.5 l -73.9,-209.92 h -101.4 l 236.6,617.78 h 92.1"
            style="fill:#ffffff;fill-opacity:1;fill-rule:nonzero;stroke:none"
            id="path118" />
         <path
            d="m 11180.5,2014.04 h -326.2 v 617.78 h 94.4 v -530.55 h 231.8 v -87.23"
            style="fill:#ffffff;fill-opacity:1;fill-rule:nonzero;stroke:none"
            id="path120" />
         <path
            d="m 11869,2631.82 v -617.78 h -76.3 L 11351,2473.9 v -459.86 h -94.2 v 617.78 h 77.1 l 440.7,-460.53 v 460.53 h 94.4"
            style="fill:#ffffff;fill-opacity:1;fill-rule:nonzero;stroke:none"
            id="path122" />
         <path
            d="m 12279.2,2014.04 h -288.3 v 617.78 h 288.3 v -88.03 h -194.1 v -176.85 h 137.6 v -87.22 h -137.6 v -178.45 h 194.1 v -87.23"
            style="fill:#ffffff;fill-opacity:1;fill-rule:nonzero;stroke:none"
            id="path124" />
         <path
            d="m 12783.9,2631.82 h 94.2 v -617.78 h -94.2 v 264.88 h -313.7 v -264.88 h -94.4 v 617.78 h 94.4 v -265.68 h 313.7 v 265.68"
            style="fill:#ffffff;fill-opacity:1;fill-rule:nonzero;stroke:none"
            id="path126" />
         <path
            d="m 13285.9,2089.53 c 138.4,2.4 223.3,107.63 220.9,238.87 -3,134.44 -87.3,219.27 -217.7,220.06 -159.5,-0.79 -218.5,-137.51 -217.7,-228.6 -2.4,-106.16 56.6,-228.73 214.5,-230.33 z m 3.2,546.16 c 181.6,-1.47 311.3,-117.1 315.2,-303.29 3,-182.32 -127.4,-327.03 -320,-330.1 -219.3,2.4 -313.4,170.58 -311,317.56 -0.8,127.24 94.1,315.16 315.8,315.83"
            style="fill:#ffffff;fill-opacity:1;fill-rule:nonzero;stroke:none"
            id="path128" />
         <path
            d="m 14029.5,2332.4 h 36 c 81.9,0 132.9,33.74 132.9,108.43 0,71.49 -49.5,102.96 -130.5,102.96 h -38.4 z m 86.5,-82.56 c -17.4,-2.39 -35.5,-3.87 -54.4,-3.87 h -32.1 v -231.93 h -94.4 v 617.78 h 129.6 c 142.5,0 235,-58.15 235,-192.59 0,-71.49 -33.6,-124.17 -88,-156.31 l 244.4,-268.88 h -132.6 l -207.5,235.8"
            style="fill:#ffffff;fill-opacity:1;fill-rule:nonzero;stroke:none"
            id="path130" />
         <path
            d="m 14769.7,2089.53 c 138.5,2.4 223.3,107.63 220.9,238.87 -3.2,134.44 -87.2,219.27 -217.7,220.06 -159.5,-0.79 -218.4,-137.51 -217.6,-228.6 -2.4,-106.16 56.5,-228.73 214.4,-230.33 z m 3.2,546.16 c 181.4,-1.47 311.3,-117.1 315.1,-303.29 3.2,-182.32 -127.3,-327.03 -319.9,-330.1 -219.2,2.4 -313.5,170.58 -311.2,317.56 -0.9,127.24 94.4,315.16 316,315.83"
            style="fill:#ffffff;fill-opacity:1;fill-rule:nonzero;stroke:none"
            id="path132" />
         <path
            d="m 15152.5,2631.82 h 402.5 v -69.91 l -286.2,-460.64 h 283.8 v -87.23 h -400.9 v 70.02 l 282.2,459.73 h -281.4 v 88.03"
            style="fill:#ffffff;fill-opacity:1;fill-rule:nonzero;stroke:none"
            id="path134" />
         <path
            d="m 15870,2122.47 184.7,509.35 h 101.3 l -239.6,-617.78 h -98.9 l -223.3,617.78 h 101.4 l 174.4,-509.35"
            style="fill:#ffffff;fill-opacity:1;fill-rule:nonzero;stroke:none"
            id="path136" />
         <path
            d="m 16508.8,2089.53 c 138.5,2.4 223.3,107.63 221,238.87 -3,134.44 -87.3,219.27 -217.8,220.06 -159.5,-0.79 -218.4,-137.51 -217.6,-228.6 -2.4,-106.16 56.5,-228.73 214.4,-230.33 z m 3.2,546.16 c 181.7,-1.47 311.3,-117.1 315.3,-303.29 3,-182.32 -127.3,-327.03 -320,-330.1 -219.1,2.4 -313.5,170.58 -311.1,317.56 -0.8,127.24 94.2,315.16 315.8,315.83"
            style="fill:#ffffff;fill-opacity:1;fill-rule:nonzero;stroke:none"
            id="path138" />
         <path
            d="m 16853.2,1878.93 c 54.9,47.09 81.7,113.1 82.4,190.99 v 561.9 h 95.2 v -561.11 c 0,-110.82 -41.6,-200.45 -117.1,-262.59 l -60.5,70.81"
            style="fill:#ffffff;fill-opacity:1;fill-rule:nonzero;stroke:none"
            id="path140" />
         <path
            d="m 17307.4,2311.19 h 146.2 l -72.3,208.2 z m 122.7,320.63 228.6,-617.78 h -101.3 l -73.1,209.92 h -207.5 l -73.9,-209.92 h -101.4 l 236.6,617.78 h 92"
            style="fill:#ffffff;fill-opacity:1;fill-rule:nonzero;stroke:none"
            id="path142" />
         <path
            d="m 2830.3,1406.54 h 145.5 l -71.99,207.31 z m 122,319.16 227.63,-614.8 h -100.91 l -72.77,208.85 h -206.46 l -73.51,-208.85 h -100.91 l 235.46,614.8 h 91.47"
            style="fill:#ffffff;fill-opacity:1;fill-rule:nonzero;stroke:none"
            id="path144" />
         <path
            d="m 3578.73,1725.7 v -614.8 h -93.79 v 614.8 h 93.79"
            style="fill:#ffffff;fill-opacity:1;fill-rule:nonzero;stroke:none"
            id="path146" />
         <path
            d="m 4313.21,1725.7 v -614.8 h -75.9 l -439.57,457.57 V 1110.9 h -93.82 v 614.8 h 76.62 l 438.8,-458.36 v 458.36 h 93.87"
            style="fill:#ffffff;fill-opacity:1;fill-rule:nonzero;stroke:none"
            id="path148" />
         <path
            d="m 4434.39,1110.9 v 614.8 h 287.07 v -87.64 h -193.19 v -177.53 h 136.06 v -86.85 H 4528.27 V 1110.9 h -93.88"
            style="fill:#ffffff;fill-opacity:1;fill-rule:nonzero;stroke:none"
            id="path150" />
         <path
            d="m 5067.15,1186.01 c 137.67,2.32 222.12,107.14 219.8,237.77 -3.11,133.75 -86.85,218.19 -216.68,218.99 -158.75,-0.8 -217.4,-136.86 -216.68,-227.62 -2.31,-105.54 56.33,-227.62 213.56,-229.14 z m 3.12,543.61 c 180.65,-1.6 309.76,-116.57 313.68,-301.92 3.12,-181.45 -126.72,-325.42 -318.39,-328.54 -218.2,2.4 -312.08,169.75 -309.68,315.99 -0.8,126.71 93.8,313.67 314.39,314.47"
            style="fill:#ffffff;fill-opacity:1;fill-rule:nonzero;stroke:none"
            id="path152" />
         <path
            d="m 5572.4,1427.7 h 35.96 c 81.33,0 132.23,33.63 132.23,107.93 0,71.19 -49.3,102.43 -129.84,102.43 h -38.35 z m 86.05,-82.14 c -17.26,-2.34 -35.23,-3.91 -54.01,-3.91 H 5572.4 V 1110.9 h -93.87 v 614.8 h 129.03 c 141.57,0 233.86,-57.92 233.86,-191.67 0,-71.18 -33.56,-123.6 -87.58,-155.63 l 243.29,-267.5 H 5864.9 l -206.45,234.66"
            style="fill:#ffffff;fill-opacity:1;fill-rule:nonzero;stroke:none"
            id="path154" />
         <path
            d="m 6623.57,1110.9 v 409.87 L 6411.61,1110.9 h -83.65 l -205.74,402.84 V 1110.9 h -93.87 v 614.8 h 101.71 l 242.48,-492 251.03,492 h 93.89 v -614.8 h -93.89"
            style="fill:#ffffff;fill-opacity:1;fill-rule:nonzero;stroke:none"
            id="path156" />
         <path
            d="m 6992.74,1406.54 h 145.49 l -71.99,207.31 z m 122.01,319.16 227.62,-614.8 h -100.91 l -72.79,208.85 h -206.45 l -73.5,-208.85 H 6787.8 l 235.39,614.8 h 91.56"
            style="fill:#ffffff;fill-opacity:1;fill-rule:nonzero;stroke:none"
            id="path158" />
         <path
            d="m 7350.09,1725.7 h 494.42 v -87.64 H 7644.2 V 1110.9 h -93.81 v 527.16 h -200.3 v 87.64"
            style="fill:#ffffff;fill-opacity:1;fill-rule:nonzero;stroke:none"
            id="path160" />
         <path
            d="m 8000.91,1725.7 v -614.8 h -93.95 v 614.8 h 93.95"
            style="fill:#ffffff;fill-opacity:1;fill-rule:nonzero;stroke:none"
            id="path162" />
         <path
            d="m 8095.5,1725.7 h 400.44 v -69.66 l -284.75,-458.29 h 282.35 V 1110.9 H 8094.7 v 69.59 l 280.76,457.57 H 8095.5 v 87.64"
            style="fill:#ffffff;fill-opacity:1;fill-rule:nonzero;stroke:none"
            id="path164" />
         <path
            d="m 8794.74,1753.83 -50.01,47.69 112.51,116.58 52.4,-54.73 z m -54.81,-347.29 h 145.58 l -72.08,207.31 z m 122.09,319.16 227.55,-614.8 h -100.83 l -72.73,208.85 H 8709.42 L 8635.9,1110.9 h -100.83 l 235.39,614.8 h 91.56"
            style="fill:#ffffff;fill-opacity:1;fill-rule:nonzero;stroke:none"
            id="path166" />
         <path
            d="m 9129.5,1415.15 c -0.8,126.71 93.79,318.35 314.3,318.35 86.94,0 152.59,-24.26 195.58,-58.69 v -111.05 c -44.58,44.58 -99.23,82.93 -195.58,82.93 -158.67,0 -217.31,-140.78 -216.51,-231.54 0,-99.31 57.84,-227.62 216.51,-227.62 82.17,0 151.79,29 195.58,70.38 v -98.51 c -48.4,-35.95 -102.43,-58.64 -195.58,-58.64 -220.51,0.8 -314.3,175.21 -314.3,313.59 v 0.8"
            style="fill:#ffffff;fill-opacity:1;fill-rule:nonzero;stroke:none"
            id="path168" />
         <path
            d="m 9827.1,1725.7 v -614.8 h -93.78 v 614.8 h 93.78"
            style="fill:#ffffff;fill-opacity:1;fill-rule:nonzero;stroke:none"
            id="path170" />
         <path
            d="m 10235.4,1110.9 h -287.01 v 614.8 h 287.01 v -87.64 h -193.2 v -175.94 h 136.9 v -86.84 h -136.9 v -177.53 h 193.2 v -86.85"
            style="fill:#ffffff;fill-opacity:1;fill-rule:nonzero;stroke:none"
            id="path172" />
      </g>
   </g>
</svg>